<?xml version="1.0" encoding="UTF-8"?>
<svg version="1.1" xmlns="http://www.w3.org/2000/svg" width="2000" height="2000">
<path d="M0 0 C660 0 1320 0 2000 0 C2000 660 2000 1320 2000 2000 C1340 2000 680 2000 0 2000 C0 1340 0 680 0 0 Z " fill="#FEFEFE" transform="translate(0,0)"/>
<path d="M0 0 C0.77988281 0.71929687 1.55976562 1.43859375 2.36328125 2.1796875 C3.27722656 3.00210937 4.19117188 3.82453125 5.1328125 4.671875 C20.08793328 18.78819968 28.95238877 37.72128303 30.36328125 58.1796875 C30.49721669 63.02566146 30.49024591 67.86991459 30.47680664 72.71728516 C30.47652402 74.15716551 30.47668397 75.597046 30.47724915 77.03692627 C30.47753418 80.91638851 30.47168519 84.79581937 30.46467519 88.67527437 C30.4583925 92.74049498 30.45783398 96.80571644 30.45664978 100.87094116 C30.45355089 108.55587992 30.44535706 116.24080433 30.43530029 123.92573678 C30.42409421 132.6803346 30.41861741 141.43493312 30.41360486 150.18953633 C30.40317315 168.1862615 30.38560181 186.18297334 30.36328125 204.1796875 C24.3832211 204.86300879 18.40304258 205.54528212 12.42276001 206.22665405 C10.39542543 206.45778236 8.36812145 206.68917926 6.34085083 206.92086792 C-5.5208594 208.27629303 -17.38338244 209.60271891 -29.26171875 210.8046875 C-38.02117682 211.69252039 -46.76831905 212.64533586 -55.51171875 213.6796875 C-65.74818804 214.88999575 -75.99745114 215.90413136 -86.25970459 216.8671875 C-95.7005354 217.75679924 -105.09882616 218.82357471 -114.50048828 220.0546875 C-123.36362288 221.19391551 -132.249631 222.03700422 -141.14599609 222.8671875 C-149.66467845 223.66484027 -158.15323956 224.56925422 -166.63671875 225.6796875 C-175.3319312 226.81270445 -184.03133822 227.73665783 -192.76171875 228.5546875 C-220.30006525 231.14334451 -247.79348347 234.21496095 -275.25839233 237.48754883 C-299.15446801 240.3325139 -323.08964193 242.81716006 -347.0255127 245.30081177 C-379.82509315 248.70454801 -412.61319218 252.17226656 -445.35174561 256.12493896 C-457.43704673 257.58331066 -469.52467152 258.93849708 -481.63696289 260.15673828 C-489.31222701 260.93026142 -496.97539181 261.77883232 -504.63671875 262.6796875 C-515.02368963 263.90028356 -525.42001273 264.99672309 -535.82470703 266.0546875 C-543.72893159 266.86375647 -551.62137877 267.7455452 -559.51171875 268.6796875 C-569.74817584 269.89009536 -579.99745317 270.90413156 -590.25970459 271.8671875 C-598.73994256 272.66628235 -607.1908722 273.57587105 -615.63671875 274.6796875 C-624.33195307 275.81251732 -633.03131563 276.73683384 -641.76171875 277.5546875 C-655.37909513 278.83232629 -668.97726853 280.26325915 -682.57421875 281.7421875 C-683.55336243 281.84819275 -684.5325061 281.954198 -685.5413208 282.06341553 C-688.39491357 282.37269107 -691.24827578 282.6840084 -694.1015625 282.99609375 C-694.92678909 283.08561813 -695.75201569 283.17514252 -696.60224915 283.26737976 C-702.06903373 283.86932268 -707.52662024 284.53398347 -712.9834137 285.21958923 C-713.72151165 285.31209945 -714.45960961 285.40460967 -715.22007418 285.49992323 C-717.02565349 285.72626316 -718.83119046 285.95294086 -720.63671875 286.1796875 C-719.7120573 286.18008768 -718.78739585 286.18048787 -717.83471435 286.18090018 C-632.17671287 286.21803367 -546.51870818 286.25528562 -415.85473633 286.33866882 C-414.33615978 286.33967445 -412.81758323 286.34068007 -411.29900669 286.34168569 C-379.42272489 286.36280787 -347.54644355 286.38454515 -315.67016266 286.40699288 C-299.65732477 286.41826868 -283.64448679 286.42942631 -267.63164873 286.44047219 C-265.21619321 286.44213909 -262.80073769 286.44380936 -260.38528217 286.44547978 C-223.1967165 286.47116791 -186.00815138 286.4943236 -148.81958008 286.51013184 C-148.02017236 286.5104717 -147.22076464 286.51081156 -146.39713244 286.51116173 C-133.50855598 286.51662582 -120.61997944 286.52187712 -107.73140288 286.52710017 C-70.60210555 286.54214992 -33.47281194 286.5587768 3.65647888 286.58581066 C4.80211975 286.58664365 4.80211975 286.58664365 5.97090488 286.58749347 C22.73852286 286.59971342 39.50614012 286.61274239 56.27375688 286.62653707 C63.02079187 286.63207359 69.76782695 286.63749368 76.51486206 286.64287376 C77.25328916 286.64346539 77.99171627 286.64405702 78.75251995 286.64466658 C102.53279895 286.66366153 126.31307014 286.6731842 150.09335594 286.67772345 C174.05421052 286.68234063 198.01504018 286.69627855 221.97588075 286.72311384 C236.84108618 286.73975189 251.7062374 286.74836461 266.57145182 286.74345679 C276.0560737 286.7411451 285.54064585 286.74967708 295.02525207 286.76701161 C300.42933561 286.77657839 305.83330924 286.78144424 311.23739731 286.77308313 C316.15973314 286.76556041 321.08185308 286.7719433 326.00416288 286.78912817 C327.76805809 286.79290091 329.5319731 286.79173526 331.29585889 286.78484351 C346.34073384 286.73071766 360.29893419 288.49652163 374.48828125 293.8671875 C375.422771 294.21604004 376.35726074 294.56489258 377.32006836 294.92431641 C407.86133012 306.66629137 431.05251844 330.59367046 444.36328125 360.1796875 C454.3510242 383.85962197 453.78938748 408.50580627 453.66746306 433.7277956 C453.64848659 438.32679704 453.64692954 442.92580675 453.64338684 447.52484131 C453.63412713 456.20114268 453.6095972 464.87732829 453.57933837 473.55357909 C453.54560321 483.4450112 453.52926069 493.33644935 453.51425207 503.22792482 C453.48304095 523.54524323 453.43040099 543.86245802 453.36328125 564.1796875 C452.6209006 564.17952515 451.87851996 564.1793628 451.11364293 564.17919552 C407.09761941 564.17033003 363.08170639 564.19268169 319.06572379 564.25547779 C313.77867945 564.26299368 308.49163477 564.2702492 303.20458984 564.27734375 C301.62578091 564.27946888 301.62578091 564.27946888 300.01507685 564.28163694 C282.98063647 564.30394517 265.94625669 564.30516835 248.91180578 564.29857613 C231.42814075 564.29228029 213.944603 564.30869709 196.46097636 564.34612358 C185.67575343 564.36849746 174.89082067 564.37323253 164.10558823 564.35528414 C156.70608367 564.3446686 149.30681712 564.35614857 141.90736148 564.38484903 C137.64047317 564.40075143 133.37415133 564.40705981 129.10726738 564.38707924 C125.19445837 564.36897257 121.28271726 564.37884642 117.37000141 564.41022633 C115.96065465 564.41672436 114.55121616 564.4132813 113.14193264 564.39843358 C101.11724036 564.2811987 92.56551099 567.41897498 83.36328125 575.1796875 C81.87996572 576.76579419 81.87996572 576.76579419 80.73828125 578.4296875 C80.35414062 578.95046875 79.97 579.47125 79.57421875 580.0078125 C74.49232566 589.12243365 73.14944017 600.12471186 75.93457031 610.25830078 C79.35377691 619.57854624 84.96870805 625.98698091 93.42578125 630.9921875 C99.27946132 633.3585688 104.45456252 634.42987785 110.77159595 634.4358139 C111.84542535 634.44090921 111.84542535 634.44090921 112.94094828 634.44610745 C115.33423102 634.45505464 117.72726888 634.44984978 120.12055969 634.44470215 C121.85601707 634.44827394 123.59147283 634.45272498 125.32692593 634.45797873 C130.09188603 634.46989668 134.85677737 634.46946116 139.62174881 634.46704364 C144.76229929 634.46662416 149.90282609 634.47772231 155.04336548 634.48750305 C163.95065237 634.50295919 172.85792342 634.51136793 181.76522255 634.51521301 C194.65457329 634.52096125 207.54388145 634.53954939 220.43321338 634.56165355 C241.35968412 634.59737632 262.28615727 634.62568775 283.21264648 634.64794922 C284.46511369 634.64928421 285.71758089 634.6506192 287.00800165 634.65199465 C295.89726132 634.66142133 304.78652125 634.67058405 313.67578125 634.6796875 C323.82478861 634.69008267 333.97379582 634.70060021 344.12280273 634.71142578 C345.37283478 634.71275652 346.62286682 634.71408727 347.91077862 634.71545833 C368.75526953 634.7378901 389.59974227 634.76808654 410.44421452 634.80381823 C423.30040391 634.82547857 436.156565 634.84010257 449.01277163 634.84565699 C457.82264236 634.84990516 466.63248616 634.86114557 475.44234196 634.87788093 C480.52503696 634.88728252 485.6076816 634.8934014 490.69038582 634.89081764 C495.34571941 634.88850186 500.0009473 634.89535166 504.65625944 634.90939647 C506.33790928 634.91285063 508.01957013 634.91295655 509.7012196 634.90932387 C529.51308025 634.87071436 547.3459913 639.25542646 562.359375 653.0859375 C577.5805495 668.98954282 582.87210796 687.37008909 582.73750305 708.93730164 C582.74147746 710.23613732 582.74545186 711.534973 582.74954671 712.87316734 C582.76000517 716.43049775 582.75208952 719.98757218 582.74079621 723.544891 C582.73187397 727.39970893 582.74042055 731.2544962 582.74665833 735.10931396 C582.75610124 742.64117949 582.74958666 750.17294857 582.73739538 757.70480689 C582.72371196 766.48861038 582.72541876 775.27239142 582.72752871 784.05620287 C582.73071188 799.73385872 582.71908857 815.41146899 582.69946289 831.08911133 C582.68045187 846.27988064 582.67337875 861.47059659 582.67895508 876.66137695 C582.68502049 893.23333768 582.68482259 909.80527501 582.67346925 926.3772338 C582.67226204 928.14600329 582.67105606 929.91477277 582.6698513 931.68354225 C582.668946 932.98870664 582.668946 932.98870664 582.6680224 934.32023799 C582.66415289 940.43426077 582.66453308 946.54827479 582.66643715 952.6622982 C582.66856486 960.11694961 582.66329129 967.57155443 582.6488236 975.02619275 C582.64160831 978.82517915 582.63747799 982.6240979 582.64206696 986.42308998 C582.64693037 990.54980095 582.63617625 994.67632848 582.62397766 998.80302429 C582.62775698 999.99126901 582.63153631 1001.17951373 582.63543016 1002.40376586 C582.58015067 1013.00887141 581.71962277 1022.99313945 576.61328125 1032.4296875 C576.25838623 1033.1107959 575.90349121 1033.7919043 575.5378418 1034.49365234 C572.91018142 1039.42960858 569.9819722 1043.90879062 566.36328125 1048.1796875 C565.64140625 1049.1696875 564.91953125 1050.1596875 564.17578125 1051.1796875 C553.53214354 1063.6996075 535.3466719 1070.99855406 519.26477909 1072.46156645 C511.24798888 1072.86830418 503.22527976 1072.80760921 495.2009728 1072.74194527 C491.5731884 1072.71797313 487.9454274 1072.7236329 484.31758118 1072.72572327 C478.04977236 1072.72569661 471.78221264 1072.7083521 465.51447296 1072.67957687 C456.43747756 1072.63855009 447.36069435 1072.63223665 438.28361842 1072.63532658 C423.53165537 1072.64007183 408.77976801 1072.62778063 394.02783203 1072.59960938 C392.70731837 1072.59709978 392.70731837 1072.59709978 391.36012766 1072.59453948 C381.53355292 1072.5755294 371.7069908 1072.5529085 361.88043213 1072.5269165 C358.31270363 1072.5175502 354.74497496 1072.50824856 351.17724609 1072.49902344 C350.29677908 1072.49673899 349.41631207 1072.49445455 348.50916424 1072.49210088 C333.80252053 1072.45471229 319.09599383 1072.44459516 304.38930774 1072.45538676 C295.33935219 1072.46084289 286.29004107 1072.44288561 277.24021211 1072.39413513 C271.03883004 1072.362421 264.83774373 1072.35594623 258.63629541 1072.36891364 C255.06554047 1072.37553048 251.49576047 1072.37093986 247.92515755 1072.33516502 C226.03992093 1071.83858682 226.03992093 1071.83858682 207.3220253 1081.95680809 C201.21130842 1088.1243056 197.26055259 1097.48861235 196.98828125 1106.0546875 C197.12422204 1117.1647578 201.09814046 1126.13631529 208.82421875 1134.08203125 C217.13512019 1140.94811444 226.15532252 1142.3261555 236.54438782 1142.33790588 C237.47154278 1142.34284386 238.39869773 1142.34778184 239.3539483 1142.35286945 C242.46163106 1142.36823133 245.56929318 1142.37660156 248.67700195 1142.38500977 C250.90431398 1142.39458931 253.13162419 1142.40459944 255.3589325 1142.41500854 C261.40801866 1142.44205532 267.45711263 1142.46306616 273.50622582 1142.48301053 C279.82701557 1142.50487145 286.14778128 1142.53225963 292.46855164 1142.55906677 C303.07838945 1142.60331759 313.6882349 1142.64415308 324.2980957 1142.68237305 C335.22551435 1142.7217463 346.15292201 1142.76317691 357.08032227 1142.80737305 C357.75406965 1142.81009732 358.42781703 1142.81282159 359.121981 1142.81562842 C362.50202807 1142.8293082 365.88207497 1142.84302841 369.2621218 1142.85676873 C397.29581871 1142.97067694 425.32953962 1143.077426 453.36328125 1143.1796875 C453.433665 1164.33030612 453.48641225 1185.48090517 453.51871777 1206.63161755 C453.53412294 1216.45440293 453.55508951 1226.27711513 453.58959961 1236.09985352 C453.61969802 1244.6710334 453.63890226 1253.24216023 453.64554673 1261.81339151 C453.64942473 1266.34300425 453.65840248 1270.87246537 453.68047142 1275.40202904 C453.88030935 1318.14625112 448.34900618 1354.30906307 417.4921875 1386.14453125 C393.0691477 1410.38388162 360.63738884 1419.52344062 327.05773735 1419.43136978 C325.12132799 1419.43345919 323.18491941 1419.43642401 321.24851257 1419.44017851 C315.93716539 1419.44794721 310.62589119 1419.44331689 305.31454523 1419.43662261 C299.53246246 1419.4315416 293.75039073 1419.43807206 287.96830952 1419.44310927 C277.8376792 1419.45032968 267.7070702 1419.45011532 257.5764389 1419.44501495 C246.71044379 1419.43955922 235.84446185 1419.43835724 224.97846603 1419.44248962 C224.29125684 1419.44274797 223.60404765 1419.44300631 222.89601393 1419.44327249 C220.09695996 1419.44433907 217.29790599 1419.44543649 214.49885204 1419.44657304 C188.44884652 1419.45714309 162.39884936 1419.45787295 136.34884262 1419.45227814 C135.57746392 1419.45211255 134.80608522 1419.45194696 134.0113314 1419.45177635 C132.85240756 1419.45152756 132.85240756 1419.45152756 131.67007112 1419.45127374 C108.12703254 1419.44622637 84.58399742 1419.44492507 61.0409584 1419.44731903 C59.46409445 1419.44747399 57.88723049 1419.4476283 56.31036654 1419.44778197 C49.97354327 1419.44840291 43.63672 1419.44904024 37.29989674 1419.4497015 C19.58631488 1419.45153545 1.87273302 1419.4526767 -15.84084892 1419.45327377 C-16.64746004 1419.45330106 -17.45407116 1419.45332836 -18.28512503 1419.45335647 C-43.98462493 1419.45417495 -69.68412361 1419.45192166 -95.38362312 1419.44757462 C-96.21708501 1419.44743412 -97.0505469 1419.44729362 -97.90926522 1419.44714886 C-111.44396396 1419.444859 -124.97866268 1419.44242006 -138.51336139 1419.43996852 C-192.19787578 1419.430255 -245.88238019 1419.43070757 -299.56689453 1419.44042969 C-313.09716351 1419.44287208 -326.62743249 1419.44529418 -340.15770149 1419.44757462 C-341.40737075 1419.44778596 -341.40737075 1419.44778596 -342.68228584 1419.44800157 C-368.35691567 1419.45231393 -394.03154467 1419.4541425 -419.70617485 1419.45327377 C-420.91516145 1419.45323302 -420.91516145 1419.45323302 -422.14857202 1419.45319144 C-439.84127895 1419.45256649 -457.53398579 1419.45129922 -475.22669263 1419.44945277 C-481.5572034 1419.44879449 -487.88771418 1419.44816833 -494.21822496 1419.44755135 C-495.79308131 1419.44739657 -497.36793766 1419.44723911 -498.942794 1419.44707895 C-522.48081671 1419.44469185 -546.01883553 1419.44672447 -569.55685775 1419.45177635 C-570.71417419 1419.45202473 -570.71417419 1419.45202473 -571.89487076 1419.45227814 C-572.66499086 1419.4524435 -573.43511097 1419.45260887 -574.22856805 1419.45277924 C-600.20151968 1419.45829532 -626.17446128 1419.45626717 -652.14741148 1419.44571665 C-654.93650953 1419.44461194 -657.72560759 1419.44353853 -660.51470566 1419.44248962 C-661.19919627 1419.44222921 -661.88368689 1419.4419688 -662.58891964 1419.44170049 C-674.08524505 1419.43751623 -685.58155525 1419.44122397 -697.07787961 1419.447009 C-707.07583645 1419.45148581 -717.07377418 1419.44871704 -727.07172818 1419.43999946 C-732.77202871 1419.43523193 -738.4722819 1419.43363597 -744.17258097 1419.44081143 C-749.35881089 1419.44727334 -754.54495147 1419.44452521 -759.73117488 1419.4344501 C-761.59507271 1419.43243676 -763.45897794 1419.43376542 -765.32286989 1419.43886198 C-790.84268038 1419.50368755 -813.56557298 1413.53048071 -833.63671875 1397.1796875 C-834.87808594 1396.18388672 -834.87808594 1396.18388672 -836.14453125 1395.16796875 C-853.57737448 1380.38557347 -865.92801932 1358.77687936 -869.63671875 1336.1796875 C-869.74757813 1335.52484375 -869.8584375 1334.87 -869.97265625 1334.1953125 C-873.63538386 1307.8632708 -867.09738167 1281.65462991 -851.4765625 1260.21484375 C-835.53393047 1240.16705426 -815.63480235 1226.66243765 -790.63671875 1221.1796875 C-790.02041224 1221.01295831 -789.40410572 1220.84622912 -788.76912326 1220.67444754 C-782.08981988 1218.95807965 -775.6332885 1218.89550767 -768.76594543 1218.91467285 C-767.48998164 1218.91029158 -766.21401785 1218.90591031 -764.89938849 1218.90139627 C-761.37803257 1218.88953554 -757.85677011 1218.88990668 -754.33539903 1218.89233136 C-750.5295124 1218.89275238 -746.72365733 1218.8816379 -742.91778564 1218.87187195 C-736.32743483 1218.85644279 -729.73710535 1218.84801284 -723.14673805 1218.84416199 C-713.60302781 1218.8384012 -704.05937473 1218.81979242 -694.51568981 1218.79772145 C-679.01006234 1218.76202675 -663.50443162 1218.73370483 -647.9987793 1218.71142578 C-647.07147873 1218.71009079 -646.14417817 1218.7087558 -645.18877759 1218.70738035 C-638.60892491 1218.6979556 -632.02907188 1218.68879338 -625.44921875 1218.6796875 C-617.94165012 1218.6692941 -610.43408169 1218.65877521 -602.92651367 1218.64794922 C-602.00186421 1218.64661848 -601.07721475 1218.64528773 -600.12454561 1218.64391667 C-584.68142716 1218.62145034 -569.23833305 1218.59123745 -553.79523963 1218.55555677 C-544.28165313 1218.53395042 -534.76810453 1218.51928757 -525.25449487 1218.51371801 C-518.72930275 1218.5094555 -512.2041467 1218.4981776 -505.67897461 1218.48149407 C-501.92028975 1218.47213433 -498.16167227 1218.4659578 -494.40297508 1218.46855736 C-490.31605073 1218.47132317 -486.22931175 1218.45865006 -482.14241028 1218.44470215 C-480.97146232 1218.44800112 -479.80051436 1218.4513001 -478.59408313 1218.45469904 C-467.65134123 1218.39340609 -456.58431617 1217.45983894 -446.26171875 1213.6171875 C-445.20645996 1213.2308313 -445.20645996 1213.2308313 -444.12988281 1212.83666992 C-418.81227687 1203.1575718 -400.05075892 1185.05612882 -388.38671875 1160.6171875 C-377.41036613 1135.80108593 -376.48106819 1109.27138291 -385.8046875 1083.68359375 C-390.18690226 1072.4582518 -396.5475781 1062.10668641 -404.63671875 1053.1796875 C-405.37277344 1052.36242188 -406.10882812 1051.54515625 -406.8671875 1050.703125 C-423.040094 1033.65957263 -446.48859805 1021.16931239 -470.3167348 1020.05427633 C-471.23223373 1020.05407942 -472.14773265 1020.05388252 -473.09097397 1020.05367965 C-474.15719512 1020.05102384 -475.22341627 1020.04836803 -476.32194716 1020.04563174 C-478.06573901 1020.04888082 -478.06573901 1020.04888082 -479.84475899 1020.05219555 C-481.0917099 1020.05055172 -482.33866082 1020.04890788 -483.62339813 1020.04721424 C-487.09274851 1020.04277044 -490.56207243 1020.04454096 -494.03142355 1020.04728755 C-497.80297763 1020.04916187 -501.57452622 1020.04521377 -505.34607875 1020.04197437 C-511.95933455 1020.03707883 -518.57258321 1020.03582872 -525.18584061 1020.03693962 C-535.02061206 1020.03854887 -544.85537503 1020.03438877 -554.69014476 1020.02885914 C-570.22275195 1020.0202039 -585.75535801 1020.01484481 -601.2879672 1020.01165763 C-625.95608487 1020.00651526 -650.62418807 1019.99104894 -675.29229861 1019.97208115 C-680.54248733 1019.96805959 -685.79267612 1019.96413868 -691.04286492 1019.96021479 C-692.08950486 1019.95943214 -693.13614481 1019.95864948 -694.21450112 1019.95784311 C-696.33546554 1019.95625752 -698.45642997 1019.9546727 -700.57739439 1019.95308862 C-702.70624533 1019.95149734 -704.83509626 1019.94990309 -706.96394719 1019.94830589 C-732.07541036 1019.92947134 -757.1868745 1019.91238797 -782.29833984 1019.89672852 C-783.39722125 1019.8960396 -784.49610266 1019.89535068 -785.62828351 1019.89464088 C-821.24272443 1019.87239058 -856.85716116 1019.86054366 -892.47160792 1019.85306196 C-929.09315822 1019.84529259 -965.71467991 1019.82421524 -1002.33621309 1019.78751935 C-1007.51163658 1019.7823459 -1012.68706022 1019.77733851 -1017.86248398 1019.77243996 C-1018.88102157 1019.771473 -1019.89955916 1019.77050604 -1020.94896153 1019.76950978 C-1037.32277055 1019.75438359 -1053.69655086 1019.75347119 -1070.07036495 1019.75809709 C-1086.53929405 1019.76248731 -1103.00816444 1019.75253461 -1119.47707631 1019.72801002 C-1129.25324631 1019.71390044 -1139.02927226 1019.71084625 -1148.80544457 1019.72385255 C-1155.347295 1019.73145654 -1161.88902753 1019.72443729 -1168.43085568 1019.70587104 C-1172.15082384 1019.69572499 -1175.87050426 1019.69162454 -1179.59046699 1019.70549627 C-1206.99632076 1019.79969698 -1232.20816736 1017.31134754 -1254.63671875 1000.1796875 C-1255.16217285 999.78297852 -1255.68762695 999.38626953 -1256.22900391 998.97753906 C-1275.72412906 984.06848162 -1290.13815673 961.70157198 -1294.25732422 937.33227539 C-1295.01091986 931.07025444 -1295.03234831 924.79025541 -1295.01171875 918.4921875 C-1295.01017792 917.78148102 -1295.00863708 917.07077454 -1295.00704956 916.33853149 C-1294.8674088 889.31557077 -1284.73457207 867.29491811 -1265.88671875 847.9921875 C-1246.1154305 828.45141413 -1220.70252038 818.57444835 -1193.00399405 818.52209413 C-1191.27536958 818.53449299 -1189.5467484 818.54735719 -1187.81813049 818.56063843 C-1185.92081959 818.55646172 -1184.02351252 818.55008395 -1182.1262154 818.54173243 C-1176.97859657 818.52524021 -1171.83146902 818.53927442 -1166.68387806 818.55879354 C-1161.10722143 818.57436011 -1155.53062298 818.56073698 -1149.95396423 818.55070496 C-1140.31078284 818.53714758 -1130.66774395 818.54133157 -1121.02456856 818.55753708 C-1107.06727424 818.58070168 -1093.11012134 818.57325345 -1079.15282213 818.55800588 C-1056.48280399 818.53378397 -1033.81284493 818.52945493 -1011.14282227 818.54003906 C-1009.77499026 818.54066929 -1008.40715825 818.54129942 -1007.03932624 818.54192944 C-1004.29859603 818.54319894 -1001.55786581 818.54447448 -998.8171356 818.54575215 C-998.13787149 818.54606799 -997.45860739 818.54638383 -996.75875952 818.54670924 C-995.38554476 818.54734886 -994.01233 818.54799211 -992.63911524 818.54863899 C-976.8320829 818.55602631 -961.02505153 818.55841628 -945.21801758 818.55859375 C-944.54046491 818.55860651 -943.86291224 818.55861928 -943.16482766 818.55863243 C-919.88220061 818.5589786 -896.5995939 818.54712937 -873.3169741 818.52763426 C-859.39575575 818.51668675 -845.47462794 818.51747486 -831.55341404 818.533574 C-822.01899688 818.54405228 -812.48461613 818.5442613 -802.95019651 818.53645585 C-797.45372456 818.53237564 -791.95736861 818.53326719 -786.4609108 818.54738808 C-781.42348328 818.56027333 -776.38625136 818.5592583 -771.34882282 818.54751559 C-769.53292571 818.54572325 -767.7170147 818.54895331 -765.90113873 818.55789797 C-751.89744214 818.62277171 -739.29459217 816.97147662 -726.07421875 811.9921875 C-725.27048828 811.69103027 -724.46675781 811.38987305 -723.63867188 811.07958984 C-698.98136313 801.48570892 -681.2869075 782.18230877 -669.97265625 758.73046875 C-668.68319923 755.57802321 -667.62027494 752.44013754 -666.63671875 749.1796875 C-666.05277344 747.36597656 -666.05277344 747.36597656 -665.45703125 745.515625 C-660.1468131 727.48501049 -660.6788636 706.97050497 -666.63671875 689.1796875 C-666.84039063 688.55094727 -667.0440625 687.92220703 -667.25390625 687.27441406 C-675.61489046 662.17855867 -693.34396748 642.50314866 -716.63671875 630.3046875 C-732.29109588 622.93688246 -747.37215953 619.87456573 -764.68377686 619.9012146 C-766.06357053 619.89620025 -767.44336129 619.89032116 -768.82314801 619.88366187 C-772.5813737 619.86798554 -776.33952438 619.86443808 -780.0977788 619.86301327 C-784.16306685 619.85929741 -788.22831478 619.84413121 -792.2935791 619.83039856 C-799.32589034 619.80819018 -806.35818717 619.7931384 -813.39052582 619.78303146 C-823.55793826 619.7684083 -833.72530052 619.74286138 -843.89268342 619.71470018 C-860.39100739 619.66929811 -876.88933862 619.63265616 -893.38769531 619.6015625 C-909.40854159 619.57134993 -925.42937015 619.53698726 -941.45019531 619.49707031 C-942.43872516 619.49460876 -943.42725501 619.49214722 -944.44574031 619.48961107 C-949.40520453 619.47723595 -954.36466853 619.46477952 -959.32413244 619.45228267 C-1000.42830322 619.34881353 -1041.53249581 619.25957782 -1082.63671875 619.1796875 C-1082.72840475 583.52692684 -1082.79882358 547.87418696 -1082.84098007 512.22133255 C-1082.8459825 508.00595328 -1082.85115983 503.79057424 -1082.85644531 499.57519531 C-1082.85749455 498.73603891 -1082.8585438 497.89688251 -1082.85962483 497.03229713 C-1082.87699914 483.46983092 -1082.90852031 469.90743298 -1082.94532993 456.34500718 C-1082.98282236 442.41414131 -1083.0049721 428.48331103 -1083.01307273 414.55239677 C-1083.01854335 405.96599257 -1083.03578056 397.37978139 -1083.06838462 388.79343665 C-1083.08963518 382.89421277 -1083.09589513 376.99508773 -1083.09072426 371.09582841 C-1083.08817867 367.6992928 -1083.09413153 364.30336169 -1083.11354065 360.90684128 C-1083.20711977 343.67782627 -1082.71467113 328.03213486 -1074.88671875 312.3046875 C-1074.36911987 311.24193604 -1074.36911987 311.24193604 -1073.84106445 310.15771484 C-1070.82100066 304.16420799 -1067.2306271 299.08644266 -1062.63671875 294.1796875 C-1061.40308594 292.81070313 -1061.40308594 292.81070313 -1060.14453125 291.4140625 C-1053.69718823 284.57427252 -1046.89660371 279.63204185 -1038.63671875 275.1796875 C-1037.81300781 274.73238281 -1036.98929688 274.28507812 -1036.140625 273.82421875 C-1022.7044055 267.18135183 -1007.4731406 263.64819971 -993.11401367 259.48608398 C-988.69434336 258.20019102 -984.28344394 256.88631293 -979.875 255.5625 C-978.6013282 255.18019981 -978.6013282 255.18019981 -977.30192566 254.79017639 C-963.77330681 250.72369722 -950.26109424 246.60273542 -936.74633789 242.49047852 C-924.19666464 238.67245843 -911.64728119 234.85795961 -899.0559082 231.17944336 C-894.63898071 229.88795332 -890.23057437 228.56921328 -885.82421875 227.2421875 C-884.3385508 226.79554255 -882.85287309 226.34893002 -881.3671875 225.90234375 C-880.09524536 225.51961304 -880.09524536 225.51961304 -878.79760742 225.12915039 C-876.31904677 224.38464414 -873.83999197 223.64186119 -871.3605957 222.90014648 C-857.38389906 218.71688424 -843.42725244 214.46905944 -829.47387695 210.20874023 C-818.40811825 206.83084844 -807.33641752 203.47984945 -796.23168945 200.23217773 C-791.75649511 198.92198671 -787.28915062 197.5868542 -782.82421875 196.2421875 C-781.3385508 195.79554255 -779.85287309 195.34893002 -778.3671875 194.90234375 C-777.50633545 194.64332275 -776.6454834 194.38430176 -775.75854492 194.11743164 C-773.41018059 193.41202244 -771.06136744 192.70819975 -768.7121582 192.00561523 C-758.08245184 188.82464233 -747.4614351 185.6153588 -736.84375 182.39453125 C-736.14274359 182.18190706 -735.44173717 181.96928288 -734.71948814 181.75021553 C-728.15237319 179.75826925 -721.58543145 177.76575257 -715.01879883 175.7722168 C-699.90773879 171.1850038 -684.79591346 166.60592132 -669.63671875 162.1796875 C-666.36369283 161.20775622 -663.09346179 160.22675846 -659.82421875 159.2421875 C-658.3385508 158.79554255 -656.85287309 158.34893002 -655.3671875 157.90234375 C-654.51278076 157.64525635 -653.65837402 157.38816895 -652.77807617 157.12329102 C-650.36461376 156.3983332 -647.95067923 155.67503196 -645.53637695 154.95288086 C-635.69463282 152.00745612 -625.86032029 149.03823619 -616.03125 146.05078125 C-614.84544846 145.69037247 -613.65964691 145.32996368 -612.43791199 144.95863342 C-607.54055159 143.46980379 -602.64332682 141.98052954 -597.74633789 140.49047852 C-585.19666464 136.67245843 -572.64728119 132.85795961 -560.0559082 129.17944336 C-555.63898071 127.88795332 -551.23057437 126.56921328 -546.82421875 125.2421875 C-545.3385508 124.79554255 -543.85287309 124.34893002 -542.3671875 123.90234375 C-541.51278076 123.64525635 -540.65837402 123.38816895 -539.77807617 123.12329102 C-537.36461376 122.3983332 -534.95067923 121.67503196 -532.53637695 120.95288086 C-522.69463282 118.00745612 -512.86032029 115.03823619 -503.03125 112.05078125 C-501.84544846 111.69037247 -500.65964691 111.32996368 -499.43791199 110.95863342 C-494.54055159 109.46980379 -489.64332682 107.98052954 -484.74633789 106.49047852 C-472.19666464 102.67245843 -459.64728119 98.85795961 -447.0559082 95.17944336 C-442.63898071 93.88795332 -438.23057437 92.56921328 -433.82421875 91.2421875 C-432.3385508 90.79554255 -430.85287309 90.34893002 -429.3671875 89.90234375 C-428.50633545 89.64332275 -427.6454834 89.38430176 -426.75854492 89.11743164 C-424.41018059 88.41202244 -422.06136744 87.70819975 -419.7121582 87.00561523 C-409.08245184 83.82464233 -398.4614351 80.6153588 -387.84375 77.39453125 C-387.14274359 77.18190706 -386.44173717 76.96928288 -385.71948814 76.75021553 C-379.15237319 74.75826925 -372.58543145 72.76575257 -366.01879883 70.7722168 C-337.2154149 62.02847768 -337.2154149 62.02847768 -324.46679688 58.30273438 C-303.93798572 52.28332264 -283.48921146 45.98674137 -263.01879883 39.7722168 C-247.90773879 35.1850038 -232.79591346 30.60592132 -217.63671875 26.1796875 C-214.36369283 25.20775622 -211.09346179 24.22675846 -207.82421875 23.2421875 C-206.3385508 22.79554255 -204.85287309 22.34893002 -203.3671875 21.90234375 C-202.51278076 21.64525635 -201.65837402 21.38816895 -200.77807617 21.12329102 C-198.36461376 20.3983332 -195.95067923 19.67503196 -193.53637695 18.95288086 C-183.69463282 16.00745612 -173.86032029 13.03823619 -164.03125 10.05078125 C-162.84544846 9.69037247 -161.65964691 9.32996368 -160.43791199 8.95863342 C-155.54055159 7.46980379 -150.64332682 5.98052954 -145.74633789 4.49047852 C-133.20687572 0.67556497 -120.6678103 -3.13628136 -108.08666992 -6.81176758 C-103.51388904 -8.14855605 -98.94946521 -9.51224816 -94.38671875 -10.8828125 C-93.55027832 -11.13248779 -92.71383789 -11.38216309 -91.85205078 -11.6394043 C-86.12190376 -13.35469672 -80.42473034 -15.15493184 -74.75390625 -17.05859375 C-48.94694894 -23.36480512 -20.23199051 -17.47771953 0 0 Z " fill="#272525" transform="translate(1383.63671875,322.8203125)"/>
<path d="M0 0 C1.77318221 -0.00043639 3.54636436 -0.00131256 5.31954616 -0.00258917 C10.17909389 -0.00482074 15.03861949 -0.00083115 19.89816439 0.0041889 C25.14345398 0.00851242 30.38874234 0.00704562 35.6340332 0.00628662 C44.71755836 0.00576259 53.80107633 0.00889676 62.88459969 0.01452446 C76.01780658 0.02265584 89.15101 0.02525636 102.28421914 0.02651245 C123.59263386 0.02870039 144.90104475 0.0353535 166.2094574 0.04481506 C186.90704835 0.05399584 207.60463826 0.06106196 228.30223083 0.06532288 C229.59131015 0.06559087 230.88038947 0.06585887 232.2085318 0.06613499 C242.29016795 0.06821444 252.37180412 0.07017136 262.45344031 0.07208955 C311.85868845 0.08152108 361.26392701 0.10163991 410.66917419 0.12025452 C410.66917419 97.47025452 410.66917419 194.82025452 410.66917419 295.12025452 C305.14443999 295.32191126 305.14443999 295.32191126 260.96214294 295.36439514 C250.85065165 295.37418325 240.73916074 295.3842853 230.62767029 295.39491272 C229.36050789 295.39623146 228.09334548 295.39755021 226.78778422 295.39890891 C206.37920315 295.42060522 185.97069314 295.45999637 165.56215408 295.5060185 C144.58899315 295.55291643 123.6158692 295.580578 102.642658 295.59069699 C89.72010874 295.59752858 76.79776029 295.61903835 63.8752729 295.65983685 C54.99184388 295.68644019 46.10851738 295.69421607 37.22505149 295.6877614 C32.11372281 295.68458566 27.00274288 295.68915719 21.89147758 295.71628189 C-26.59054788 295.96055523 -70.01950052 287.80989146 -105.80787659 252.63490295 C-106.31044983 252.13506897 -106.81302307 251.63523499 -107.33082581 251.12025452 C-108.05181458 250.40530823 -108.05181458 250.40530823 -108.78736877 249.67591858 C-136.11530991 222.18761327 -149.85334357 184.23938184 -149.89332581 145.87025452 C-149.83096829 132.96308106 -149.09549746 120.54596303 -145.33082581 108.12025452 C-145.00936584 107.03139954 -145.00936584 107.03139954 -144.68141174 105.92054749 C-138.55428609 85.73314005 -128.03449333 67.12550326 -114.33082581 51.12025452 C-113.62184143 50.2888092 -112.91285706 49.45736389 -112.18238831 48.60072327 C-83.31416716 15.63017596 -43.18792519 -0.07900621 0 0 Z " fill="#FEFEFE" transform="translate(1484.330825805664,1028.8797454833984)"/>
<path d="M0 0 C13.14723886 10.82335383 23.94958918 24.84316082 25.68383789 42.33227539 C26.44728861 55.71009605 25.47439868 66.78471091 19.43261719 78.79882812 C18.73072266 80.20841797 18.73072266 80.20841797 18.01464844 81.64648438 C9.88449936 96.38095623 -2.77928765 105.51634516 -18.56738281 110.79882812 C-34.86164261 115.35117431 -51.19153633 113.64300137 -66.25488281 106.11132812 C-72.07177622 102.74989191 -76.81698902 98.51657316 -81.56738281 93.79882812 C-82.19386719 93.21875 -82.82035156 92.63867188 -83.46582031 92.04101562 C-87.73714948 87.73103189 -90.28647977 82.78058952 -92.87988281 77.36132812 C-93.21777832 76.6575 -93.55567383 75.95367188 -93.90380859 75.22851562 C-100.20243173 61.42576073 -100.64953245 45.45824214 -95.87988281 31.09960938 C-88.67159003 12.97161116 -77.48594002 1.49328423 -60.00488281 -7.01367188 C-41.10388025 -15.10649551 -16.48905417 -12.63647142 0 0 Z " fill="#272525" transform="translate(1518.5673828125,1125.201171875)"/>
</svg>
